# AST/ASF file generated using VICON BodyLanguage
# -----------------------------------------------
:version 1.10
:name VICON
:units
  mass 1.0
  length 0.45
  angle deg
:documentation
   .ast/.asf automatically generated from VICON data using
   VICON BodyBuilder and BodyLanguage model FoxedUp or BRILLIANT.MOD
:root
   order TX TY TZ RX RY RZ
   axis XYZ
   position 0 0 0  
   orientation 0 0 0 
:bonedata
  begin
     id 1 
     name lhipjoint
     direction 0.588788 -0.725889 0.355548 
     length 2.37778 
     axis 0 0 0  XYZ
  end
  begin
     id 2 
     name lfemur
     direction 0.34202 -0.939693 0  
     length 6.86393  
     axis 0 0 20  XYZ
    dof rx ry rz
    limits (-160.0 20.0)
           (-70.0 70.0)
           (-60.0 70.0)
  end
  begin
     id 3 
     name ltibia
     direction 0.34202 -0.939693 0   
     length 7.32851   
     axis 0 0 20   XYZ
    dof rx
    limits (-10.0 170.0)
  end
  begin
     id 4 
     name lfoot
     direction 0.0626533 -0.172138 0.983078   
     length 1.98929   
     axis -90 7.62852e-016 20   XYZ
    dof rx rz
    limits (-45.0 90.0)
           (-70.0 20.0)
  end
  begin
     id 5 
     name ltoes
     direction 1.53647e-011 -4.21734e-011 1   
     length 1.00479   
     axis -90 7.62852e-016 20   XYZ
    dof rx
    limits (-90.0 20.0)
  end
  begin
     id 6 
     name rhipjoint
     direction -0.59141 -0.724168 0.354705   
     length 2.38343  
     axis 0 0 0  XYZ 
  end
  begin
     id 7 
     name rfemur
     direction -0.34202 -0.939693 0   
     length 6.95589   
     axis 0 0 -20   XYZ
    dof rx ry rz
    limits (-160.0 20.0)
           (-70.0 70.0)
           (-70.0 60.0)
  end
  begin
     id 8 
     name rtibia
     direction -0.34202 -0.939693 0   
     length 7.32327   
     axis 0 0 -20   XYZ
    dof rx
    limits (-10.0 170.0)
 end
 begin
     id 9 
     name rfoot
     direction -0.0660461 -0.18146 0.981178   
     length 1.85272  
     axis -90 -7.62852e-016 -20   XYZ
    dof rx rz
    limits (-45.0 90.0)
           (-20.0 70.0)
  end
  begin
     id 10 
     name rtoes
     direction -1.53586e-011 -4.21988e-011 1   
     length 0.93746   
     axis -90 -7.62852e-016 -20   XYZ
    dof rx
    limits (-90.0 20.0)
  end
  begin
     id 11 
     name lowerback
     direction -0.0107982 0.991059 0.13299   
     length 1.98691   
     axis 0 0 0   XYZ
    dof rx ry rz
    limits (-20.0 45.0)
           (-30.0 30.0)
           (-30.0 30.0)
  end
  begin
     id 12 
     name upperback
     direction 0.0076296 0.999916 0.0104576   
     length 1.99501   
     axis 0 0 0   XYZ
    dof rx ry rz
    limits (-20.0 45.0)
           (-30.0 30.0)
           (-30.0 30.0)
  end
  begin
     id 13 
     name thorax
     direction 0.01176 0.998615 -0.0512909   
     length 2.03144   
     axis 0 0 0   XYZ
    dof rx ry rz
    limits (-20.0 45.0)
           (-30.0 30.0)
           (-30.0 30.0)
  end
  begin
     id 14 
     name lowerneck
     direction -0.0171909 0.999644 0.0204011   
     length 1.71818   
     axis 0 0 0   XYZ
    dof rx ry rz
    limits (-20.0 45.0)
           (-30.0 30.0)
           (-30.0 30.0)
  end
  begin
     id 15 
     name upperneck
     direction 0.0250902 0.997482 -0.0663316   
     length 1.66199   
     axis 0 0 0   XYZ
    dof rx ry rz
    limits (-20.0 45.0)
           (-30.0 30.0)
           (-30.0 30.0)
  end
  begin
     id 16
     name head
     direction 0.00881535 0.99956 -0.0283365  
     length 1.81545  
     axis 0 0 0   XYZ
    dof rx ry rz
    limits (-20.0 45.0)
           (-30.0 30.0)
           (-30.0 30.0)
  end
  begin
     id 17 
     name lclavicle
     direction 0.840411 0.486876 -0.238035  
     length 3.30409  
     axis 0 0 0   XYZ
    dof ry rz
    limits (-20.0 10.0)
           (0.0 20.0)
  end
  begin
     id 18 
     name lhumerus
     direction 1 -4.48977e-011 -5.16239e-027   
     length 4.62672   
     axis 180 -30 -90   XYZ
    dof rx ry rz
    limits (-60.0 90.0)
           (-90.0 90.0)
           (-90.0 90.0)
  end
  begin
     id 19
     name lradius
     direction 1 -4.48977e-011 -8.71171e-027   
     length 3.11018   
     axis 180 -30 -90   XYZ
    dof rx
    limits (-10.0 170.0)
  end
  begin
     id 20
     name lwrist
     direction 1 -4.48912e-011 -1.03764e-026   
     length 1.55509   
     axis 9.09556e-015 90 90   XYZ
    dof ry
    limits (-180.0 0.0)
 end
  begin
     id 21 
     name lhand
     direction 1 -4.49072e-011 -2.07528e-026   
     length 0.743834   
     axis 1.3242e-014 90 90   XYZ
    dof rx rz
    limits (-90.0 90.0)
           (-45.0 45.0)
  end
  begin
     id 22 
     name lfingers
     direction 1 -4.48909e-011 -4.15056e-026   
     length 0.599698   
     axis 2.64841e-014 90 90   XYZ
    dof rx
    limits (0.0 90.0)
  end
  begin
     id 23
     name lthumb
     direction 0.707107 -6.35013e-011 0.707107   
     length 0.86105   
     axis -90 45 2.85299e-015   XYZ
    dof rx rz
    limits (-45.0 45.0)
           (-45.0 45.0)
  end
  begin
     id 24 
     name rclavicle
     direction -0.835208 0.500237 -0.228452   
     length 3.2716  
     axis 0 0 0   XYZ 
    dof ry rz
    limits (-10.0 20.0)
           (-20.0 0.0)
  end
  begin
     id 25 
     name rhumerus
     direction -1 -4.48978e-011 -5.1953e-028  
     length 4.55919   
     axis 180 30 90   XYZ
    dof rx ry rz
    limits (-90.0 60.0)
           (-90.0 90.0)
           (-90.0 90.0)
  end
  begin
     id 26 
     name rradius
     direction -1 -4.48961e-011 -5.99546e-027   
     length 3.22748   
     axis 180 30 90   XYZ
    dof rx
    limits (-10.0 170.0)
  end
  begin
     id 27 
     name rwrist
     direction -1 -4.48986e-011 -1.03764e-026   
     length 1.61374   
     axis 9.09556e-015 -90 -90   XYZ
    dof ry
    limits (-180.0 0.0)
  end
  begin
     id 28
     name rhand
     direction -1 -4.4899e-011 -2.07528e-026   
     length 0.700882   
     axis 1.3242e-014 -90 -90   XYZ
    dof rx rz
    limits (-90.0 90.0)
           (-45.0 45.0)
  end
  begin
     id 29
     name rfingers
     direction -1 -4.48991e-011 -4.15056e-026   
     length 0.565069   
     axis 2.64841e-014 -90 -90   XYZ
    dof rx
    limits (0.0 90.0)
  end
  begin
     id 30
     name rthumb
     direction -0.707107 -6.34804e-011 0.707107   
     length 0.811329   
     axis -90 -45 -2.85299e-015   XYZ
    dof rx rz
    limits (-45.0 45.0)
           (-45.0 45.0)
  end
:hierarchy
  begin
    root lhipjoint rhipjoint lowerback
    lhipjoint lfemur
    lfemur ltibia
    ltibia lfoot
    lfoot ltoes
    rhipjoint rfemur
    rfemur rtibia
    rtibia rfoot
    rfoot rtoes
    lowerback upperback
    upperback thorax
    thorax lowerneck lclavicle rclavicle
    lowerneck upperneck
    upperneck head
    lclavicle lhumerus
    lhumerus lradius
    lradius lwrist
    lwrist lhand lthumb
    lhand lfingers
    rclavicle rhumerus
    rhumerus rradius
    rradius rwrist
    rwrist rhand rthumb
    rhand rfingers
  end

#!OML:ASF F:\VICON\USERDATA\INSTALL\SteveWalk\SteveWalk.ASF
:FULLY-SPECIFIED
:DEGREES
304
root 0.342534 16.2128 25.6109 16.451 2.76025 0.768157
lowerback -14.1426 -1.3209 -2.71219
upperback -5.64495 -1.37859 -0.108902
thorax 2.03425 -0.655388 1.20125
lowerneck -3.42676 -1.42587 -1.21056
upperneck 11.1817 -2.21687 3.51235
head 4.35773 -0.981187 1.29065
rclavicle 1.02933e-014 1.98785e-015
rhumerus -53.6182 -21.94 -68.3632
rradius 16.4018
rwrist 10.6035
rhand -13.4821 -33.9428
rfingers 7.12502
rthumb 12.6284 -63.5411
lclavicle 1.02933e-014 1.98785e-015
lhumerus -26.5205 5.33754 82.7477
lradius 28.9687
lwrist 3.17528
lhand -19.6133 -12.2433
lfingers 7.12502
lthumb 6.71309 17.6303
rfemur -47.2535 -5.71707 23.0121
rtibia 60.2694
rfoot -12.1647 -3.25411
rtoes -7.83622
lfemur -23.7287 3.36664 -24.6865
ltibia 34.9563
lfoot -25.4548 -5.41373
ltoes -6.75913
305
root 0.349651 16.2079 25.8139 16.4242 3.44405 0.885772
lowerback -13.9674 -1.47177 -2.61952
upperback -5.5925 -1.59361 -0.115055
thorax 2.00208 -0.763384 1.11167
lowerneck -3.13094 -1.49147 -1.34027
upperneck 10.7897 -2.3039 3.69573
head 4.16612 -1.02734 1.36988
rclavicle -5.60324e-015 2.78299e-015
rhumerus -55.3164 -23.6479 -65.6086
rradius 15.7448
rwrist 13.2228
rhand -13.1539 -34.4591
rfingers 7.12502
rthumb 12.9449 -64.0375
lclavicle -5.60324e-015 2.78299e-015
lhumerus -25.1298 3.18985 83.4116
lradius 30.4759
lwrist 4.41945
lhand -19.9072 -13.0231
lfingers 7.12502
lthumb 6.42942 16.8593
rfemur -47.716 -6.13546 23.1324
rtibia 57.5229
rfoot -12.0555 -4.42581
rtoes -5.03237
lfemur -22.5164 3.50075 -24.6678
ltibia 34.1101
lfoot -25.9354 -5.93034
ltoes -7.17111
306
root 0.316791 16.1984 26.0236 16.6314 3.27808 1.79011
lowerback -14.06 -1.64228 -4.07892
upperback -5.55857 -1.62071 -0.197832
thorax 2.11811 -0.763583 1.84036
lowerneck -2.98553 -1.53106 -1.37298
upperneck 10.4587 -2.34688 3.71667
head 4.02126 -1.05322 1.37887
rclavicle 3.21161e-015 3.18055e-015
rhumerus -57.1706 -25.6317 -62.1906
rradius 14.8502
rwrist 16.5483
rhand -12.8011 -34.7058
rfingers 7.12502
rthumb 13.2849 -64.2624
lclavicle 3.21161e-015 3.18055e-015
lhumerus -23.7923 1.32138 83.8774
lradius 32.0308
lwrist 5.45169
lhand -20.0185 -13.8986
lfingers 7.12502
lthumb 6.322 15.9871
rfemur -48.6033 -5.36412 22.1241
rtibia 54.7611
rfoot -11.9104 -5.46959
rtoes -0.0972662
lfemur -21.4912 3.63882 -25.4797
ltibia 33.0772
lfoot -26.6779 -5.50405
ltoes -9.78284
307
root 0.331247 16.2134 26.2252 16.593 4.26711 1.55837
lowerback -13.7969 -1.84292 -3.47694
upperback -5.47342 -1.976 -0.112153
thorax 2.07501 -0.94628 1.5397
lowerneck -3.23783 -1.56254 -1.25291
upperneck 10.3692 -2.38667 3.64563
head 4.03649 -1.06942 1.3303
rclavicle -1.38124e-014 -1.49089e-014
rhumerus -59.4127 -28.0084 -57.7974
rradius 13.6361
rwrist 20.9361
rhand -12.8617 -34.1701
rfingers 7.12502
rthumb 13.2265 -63.7305
lclavicle -1.38124e-014 -1.49089e-014
lhumerus -22.4165 -0.347473 84.1247
lradius 33.5354
lwrist 6.3983
lhand -19.9607 -14.7317
lfingers 7.12502
lthumb 6.37777 15.1522
rfemur -48.9164 -5.93735 22.5125
rtibia 51.6465
rfoot -12.1917 -5.63316
rtoes 2.54218
lfemur -20.0804 3.3209 -24.9513
ltibia 32.0169
lfoot -26.892 -5.82867
ltoes -10.4225
308
root 0.297923 16.194 26.4426 16.7388 4.1873 1.87775
lowerback -13.9809 -1.93828 -4.32179
upperback -5.37409 -1.98218 -0.068496
thorax 2.30308 -0.945676 2.0533
lowerneck -3.5301 -1.58995 -1.06699
upperneck 10.3263 -2.42686 3.56471
head 4.0749 -1.08295 1.26669
rclavicle 1.8341e-015 -6.55989e-015
rhumerus -61.4067 -29.5961 -54.3307
rradius 13.0922
rwrist 23.4502
rhand -12.6423 -39.9815
rfingers 7.12502
rthumb 13.4379 -69.5281
lclavicle 1.8341e-015 -6.55989e-015
lhumerus -21.1374 -1.80821 84.2427
lradius 35.0671
lwrist 7.06754
lhand -20.1005 -15.1737
lfingers 7.12502
lthumb 6.24281 14.7143
rfemur -49.3462 -4.99081 22.0105
rtibia 48.4827
rfoot -11.9635 -6.64635
rtoes 2.6047
lfemur -18.7213 3.59618 -25.0832
ltibia 30.9242
lfoot -26.4506 -6.40184
ltoes -8.74691
